<?xml version="1.0" encoding="UTF-8" standalone="no"?>
<svg xmlns="http://www.w3.org/2000/svg" contentScriptType="application/ecmascript" contentStyleType="text/css"
     height="643px" preserveAspectRatio="none" style="width:343px;height:643px;background:#FFFFFF;" version="1.1"
     viewBox="0 0 343 643" width="343px" zoomAndPan="magnify"><defs><filter height="300%" id="f1d018n6oofu9j" width="300%" x="-1" y="-1"><feGaussianBlur result="blurOut" stdDeviation="2.0"/><feColorMatrix in="blurOut" result="blurOut2" type="matrix" values="0 0 0 0 0 0 0 0 0 0 0 0 0 0 0 0 0 0 .4 0"/><feOffset dx="4.0" dy="4.0" in="blurOut2" result="blurOut3"/><feBlend in="SourceGraphic" in2="blurOut3" mode="normal"/></filter></defs><g><!--MD5=[3fd616f346a44cd59a91eb10b19e157c]
class User--><rect codeLine="4" fill="#FEFECE" filter="url(#f1d018n6oofu9j)" height="241.7031" id="User" style="stroke:#A80036;stroke-width:1.5;" width="139" x="7" y="41.5"/><ellipse cx="58.75" cy="57.5" fill="#ADD1B2" rx="11" ry="11" style="stroke:#A80036;stroke-width:1.0;"/><path d="M60.75,54 Q60.9531,53.5 61.1875,53.25 Q61.4219,53 61.6875,53 Q62.1563,53 62.4531,53.2813 Q62.75,53.5625 62.75,54.2188 L62.75,55.7813 Q62.75,56.4375 62.4688,56.7188 Q62.1875,57 61.75,57 Q61.3594,57 61.1094,56.8281 Q60.8594,56.6563 60.75,56.2031 Q60.7031,55.8906 60.5313,55.7188 Q60.2188,55.3906 59.6563,55.2031 Q59.0938,55 58.5313,55 Q57.8281,55 57.2344,55.2813 Q56.6563,55.5625 56.2031,56.1875 Q55.75,56.8125 55.75,57.6719 L55.75,58.5938 Q55.75,59.625 56.5938,60.3125 Q57.4375,61 58.9375,61 Q59.8281,61 60.4531,60.7969 Q60.8125,60.6875 61.2188,60.3281 Q61.4844,60.125 61.625,60.0625 Q61.7656,60 61.9375,60 Q62.2656,60 62.5,60.2656 Q62.75,60.5156 62.75,60.875 Q62.75,61.2188 62.4063,61.625 Q61.9063,62.2188 61.1094,62.5469 Q60.0625,63 58.7813,63 Q57.2813,63 56.0781,62.4063 Q55.1094,61.9375 54.4219,60.9219 Q53.75,59.9063 53.75,58.7031 L53.75,57.6094 Q53.75,56.3594 54.3438,55.2656 Q54.9531,54.1719 56,53.5938 Q57.0625,53 58.25,53 Q58.9688,53 59.5938,53.25 Q60.2188,53.5 60.75,54 Z " fill="#000000"/><text fill="#000000" font-family="sans-serif" font-size="12" lengthAdjust="spacing" textLength="27" x="79.25" y="62.4102">User</text><line style="stroke:#A80036;stroke-width:1.5;" x1="8" x2="145" y1="73.5" y2="73.5"/><text fill="#000000" font-family="sans-serif" font-size="11" lengthAdjust="spacing" textLength="42" x="13" y="88.9189">id : bigint</text><text fill="#000000" font-family="sans-serif" font-size="11" lengthAdjust="spacing" textLength="61" x="13" y="102.7549">nip : varchar</text><text fill="#000000" font-family="sans-serif" font-size="11" lengthAdjust="spacing" textLength="73" x="13" y="116.5908">nama : varchar</text><text fill="#000000" font-family="sans-serif" font-size="11" lengthAdjust="spacing" textLength="95" x="13" y="130.4268">username : varchar</text><text fill="#000000" font-family="sans-serif" font-size="11" lengthAdjust="spacing" textLength="97" x="13" y="144.2627">password : varchar</text><text fill="#000000" font-family="sans-serif" font-size="11" lengthAdjust="spacing" textLength="127" x="13" y="158.0986">remember_token : varchar</text><text fill="#000000" font-family="sans-serif" font-size="11" lengthAdjust="spacing" textLength="109" x="13" y="171.9346">created_at : timestamp</text><text fill="#000000" font-family="sans-serif" font-size="11" lengthAdjust="spacing" textLength="111" x="13" y="185.7705">updated_at : timestamp</text><line style="stroke:#A80036;stroke-width:1.5;" x1="8" x2="145" y1="192.1875" y2="192.1875"/><text fill="#000000" font-family="sans-serif" font-size="11" lengthAdjust="spacing" textLength="34" x="13" y="207.6064">index()</text><text fill="#000000" font-family="sans-serif" font-size="11" lengthAdjust="spacing" textLength="69" x="13" y="221.4424">tambahindex()</text><text fill="#000000" font-family="sans-serif" font-size="11" lengthAdjust="spacing" textLength="51" x="13" y="235.2783">editindex()</text><text fill="#000000" font-family="sans-serif" font-size="11" lengthAdjust="spacing" textLength="43" x="13" y="249.1143">tambah()</text><text fill="#000000" font-family="sans-serif" font-size="11" lengthAdjust="spacing" textLength="25" x="13" y="262.9502">edit()</text><text fill="#000000" font-family="sans-serif" font-size="11" lengthAdjust="spacing" textLength="38" x="13" y="276.7861">hapus()</text><!--MD5=[5abd24a3b696cd815b1dc4c962e8b6fb]
class SuratMasuk--><rect codeLine="21" fill="#FEFECE" filter="url(#f1d018n6oofu9j)" height="310.8828" id="SuratMasuk" style="stroke:#A80036;stroke-width:1.5;" width="123" x="15" y="319"/><ellipse cx="41.7" cy="335" fill="#ADD1B2" rx="11" ry="11" style="stroke:#A80036;stroke-width:1.0;"/><path d="M43.7,331.5 Q43.9031,331 44.1375,330.75 Q44.3719,330.5 44.6375,330.5 Q45.1063,330.5 45.4031,330.7813 Q45.7,331.0625 45.7,331.7188 L45.7,333.2813 Q45.7,333.9375 45.4188,334.2188 Q45.1375,334.5 44.7,334.5 Q44.3094,334.5 44.0594,334.3281 Q43.8094,334.1563 43.7,333.7031 Q43.6531,333.3906 43.4813,333.2188 Q43.1688,332.8906 42.6063,332.7031 Q42.0438,332.5 41.4813,332.5 Q40.7781,332.5 40.1844,332.7813 Q39.6063,333.0625 39.1531,333.6875 Q38.7,334.3125 38.7,335.1719 L38.7,336.0938 Q38.7,337.125 39.5438,337.8125 Q40.3875,338.5 41.8875,338.5 Q42.7781,338.5 43.4031,338.2969 Q43.7625,338.1875 44.1688,337.8281 Q44.4344,337.625 44.575,337.5625 Q44.7156,337.5 44.8875,337.5 Q45.2156,337.5 45.45,337.7656 Q45.7,338.0156 45.7,338.375 Q45.7,338.7188 45.3563,339.125 Q44.8563,339.7188 44.0594,340.0469 Q43.0125,340.5 41.7313,340.5 Q40.2313,340.5 39.0281,339.9063 Q38.0594,339.4375 37.3719,338.4219 Q36.7,337.4063 36.7,336.2031 L36.7,335.1094 Q36.7,333.8594 37.2938,332.7656 Q37.9031,331.6719 38.95,331.0938 Q40.0125,330.5 41.2,330.5 Q41.9188,330.5 42.5438,330.75 Q43.1688,331 43.7,331.5 Z " fill="#000000"/><text fill="#000000" font-family="sans-serif" font-size="12" lengthAdjust="spacing" textLength="65" x="58.3" y="339.9102">SuratMasuk</text><line style="stroke:#A80036;stroke-width:1.5;" x1="16" x2="137" y1="351" y2="351"/><text fill="#000000" font-family="sans-serif" font-size="11" lengthAdjust="spacing" textLength="42" x="21" y="366.4189">id : bigint</text><text fill="#000000" font-family="sans-serif" font-size="11" lengthAdjust="spacing" textLength="70" x="21" y="380.2549">kode : varchar</text><text fill="#000000" font-family="sans-serif" font-size="11" lengthAdjust="spacing" textLength="108" x="21" y="394.0908">nomor_surat : varchar</text><text fill="#000000" font-family="sans-serif" font-size="11" lengthAdjust="spacing" textLength="102" x="21" y="407.9268">tanggal_masuk : date</text><text fill="#000000" font-family="sans-serif" font-size="11" lengthAdjust="spacing" textLength="96" x="21" y="421.7627">tanggal_surat : date</text><text fill="#000000" font-family="sans-serif" font-size="11" lengthAdjust="spacing" textLength="87" x="21" y="435.5986">pengirim : varchar</text><text fill="#000000" font-family="sans-serif" font-size="11" lengthAdjust="spacing" textLength="82" x="21" y="449.4346">kepada : varchar</text><text fill="#000000" font-family="sans-serif" font-size="11" lengthAdjust="spacing" textLength="79" x="21" y="463.2705">perihal : longtext</text><text fill="#000000" font-family="sans-serif" font-size="11" lengthAdjust="spacing" textLength="61" x="21" y="477.1064">file : varchar</text><text fill="#000000" font-family="sans-serif" font-size="11" lengthAdjust="spacing" textLength="88" x="21" y="490.9424">operator : varchar</text><text fill="#000000" font-family="sans-serif" font-size="11" lengthAdjust="spacing" textLength="109" x="21" y="504.7783">created_at : timestamp</text><text fill="#000000" font-family="sans-serif" font-size="11" lengthAdjust="spacing" textLength="111" x="21" y="518.6143">updated_at : timestamp</text><line style="stroke:#A80036;stroke-width:1.5;" x1="16" x2="137" y1="525.0313" y2="525.0313"/><text fill="#000000" font-family="sans-serif" font-size="11" lengthAdjust="spacing" textLength="34" x="21" y="540.4502">index()</text><text fill="#000000" font-family="sans-serif" font-size="11" lengthAdjust="spacing" textLength="69" x="21" y="554.2861">tambahindex()</text><text fill="#000000" font-family="sans-serif" font-size="11" lengthAdjust="spacing" textLength="51" x="21" y="568.1221">editindex()</text><text fill="#000000" font-family="sans-serif" font-size="11" lengthAdjust="spacing" textLength="43" x="21" y="581.958">tambah()</text><text fill="#000000" font-family="sans-serif" font-size="11" lengthAdjust="spacing" textLength="25" x="21" y="595.7939">edit()</text><text fill="#000000" font-family="sans-serif" font-size="11" lengthAdjust="spacing" textLength="38" x="21" y="609.6299">hapus()</text><text fill="#000000" font-family="sans-serif" font-size="11" lengthAdjust="spacing" textLength="77" x="21" y="623.4658">hapus_berkas()</text><!--MD5=[1c8de905658afffed387831ead569d69]
class SuratKeluar--><rect codeLine="43" fill="#FEFECE" filter="url(#f1d018n6oofu9j)" height="310.8828" id="SuratKeluar" style="stroke:#A80036;stroke-width:1.5;" width="123" x="206" y="7"/><ellipse cx="232.7" cy="23" fill="#ADD1B2" rx="11" ry="11" style="stroke:#A80036;stroke-width:1.0;"/><path d="M234.7,19.5 Q234.9031,19 235.1375,18.75 Q235.3719,18.5 235.6375,18.5 Q236.1063,18.5 236.4031,18.7813 Q236.7,19.0625 236.7,19.7188 L236.7,21.2813 Q236.7,21.9375 236.4188,22.2188 Q236.1375,22.5 235.7,22.5 Q235.3094,22.5 235.0594,22.3281 Q234.8094,22.1563 234.7,21.7031 Q234.6531,21.3906 234.4813,21.2188 Q234.1688,20.8906 233.6063,20.7031 Q233.0438,20.5 232.4813,20.5 Q231.7781,20.5 231.1844,20.7813 Q230.6063,21.0625 230.1531,21.6875 Q229.7,22.3125 229.7,23.1719 L229.7,24.0938 Q229.7,25.125 230.5438,25.8125 Q231.3875,26.5 232.8875,26.5 Q233.7781,26.5 234.4031,26.2969 Q234.7625,26.1875 235.1688,25.8281 Q235.4344,25.625 235.575,25.5625 Q235.7156,25.5 235.8875,25.5 Q236.2156,25.5 236.45,25.7656 Q236.7,26.0156 236.7,26.375 Q236.7,26.7188 236.3563,27.125 Q235.8563,27.7188 235.0594,28.0469 Q234.0125,28.5 232.7313,28.5 Q231.2313,28.5 230.0281,27.9063 Q229.0594,27.4375 228.3719,26.4219 Q227.7,25.4063 227.7,24.2031 L227.7,23.1094 Q227.7,21.8594 228.2938,20.7656 Q228.9031,19.6719 229.95,19.0938 Q231.0125,18.5 232.2,18.5 Q232.9188,18.5 233.5438,18.75 Q234.1688,19 234.7,19.5 Z " fill="#000000"/><text fill="#000000" font-family="sans-serif" font-size="12" lengthAdjust="spacing" textLength="65" x="249.3" y="27.9102">SuratKeluar</text><line style="stroke:#A80036;stroke-width:1.5;" x1="207" x2="328" y1="39" y2="39"/><text fill="#000000" font-family="sans-serif" font-size="11" lengthAdjust="spacing" textLength="42" x="212" y="54.4189">id : bigint</text><text fill="#000000" font-family="sans-serif" font-size="11" lengthAdjust="spacing" textLength="70" x="212" y="68.2549">kode : varchar</text><text fill="#000000" font-family="sans-serif" font-size="11" lengthAdjust="spacing" textLength="108" x="212" y="82.0908">nomor_surat : varchar</text><text fill="#000000" font-family="sans-serif" font-size="11" lengthAdjust="spacing" textLength="100" x="212" y="95.9268">tanggal_keluar : date</text><text fill="#000000" font-family="sans-serif" font-size="11" lengthAdjust="spacing" textLength="96" x="212" y="109.7627">tanggal_surat : date</text><text fill="#000000" font-family="sans-serif" font-size="11" lengthAdjust="spacing" textLength="82" x="212" y="123.5986">kepada : varchar</text><text fill="#000000" font-family="sans-serif" font-size="11" lengthAdjust="spacing" textLength="79" x="212" y="137.4346">perihal : longtext</text><text fill="#000000" font-family="sans-serif" font-size="11" lengthAdjust="spacing" textLength="61" x="212" y="151.2705">file : varchar</text><text fill="#000000" font-family="sans-serif" font-size="11" lengthAdjust="spacing" textLength="88" x="212" y="165.1064">operator : varchar</text><text fill="#000000" font-family="sans-serif" font-size="11" lengthAdjust="spacing" textLength="109" x="212" y="178.9424">created_at : timestamp</text><text fill="#000000" font-family="sans-serif" font-size="11" lengthAdjust="spacing" textLength="111" x="212" y="192.7783">updated_at : timestamp</text><line style="stroke:#A80036;stroke-width:1.5;" x1="207" x2="328" y1="199.1953" y2="199.1953"/><text fill="#000000" font-family="sans-serif" font-size="11" lengthAdjust="spacing" textLength="34" x="212" y="214.6143">index()</text><text fill="#000000" font-family="sans-serif" font-size="11" lengthAdjust="spacing" textLength="69" x="212" y="228.4502">tambahindex()</text><text fill="#000000" font-family="sans-serif" font-size="11" lengthAdjust="spacing" textLength="51" x="212" y="242.2861">editindex()</text><text fill="#000000" font-family="sans-serif" font-size="11" lengthAdjust="spacing" textLength="27" x="212" y="256.1221">lihat()</text><text fill="#000000" font-family="sans-serif" font-size="11" lengthAdjust="spacing" textLength="43" x="212" y="269.958">tambah()</text><text fill="#000000" font-family="sans-serif" font-size="11" lengthAdjust="spacing" textLength="25" x="212" y="283.7939">edit()</text><text fill="#000000" font-family="sans-serif" font-size="11" lengthAdjust="spacing" textLength="38" x="212" y="297.6299">hapus()</text><text fill="#000000" font-family="sans-serif" font-size="11" lengthAdjust="spacing" textLength="77" x="212" y="311.4658">hapus_berkas()</text><!--MD5=[e34f0599da2bdde33b1ad19d6952fd1b]
link User to SuratMasuk--><!--MD5=[93b8739eba7d19b5063a54919d0d6f20]
link User to SuratKeluar--><!--MD5=[8065e56fda46840b17ac01d8642b60fe]
@startuml
'https://plantuml.com/class-diagram
left to right direction

class User {
id : bigint
nip : varchar
nama : varchar
username : varchar
password : varchar
remember_token : varchar
created_at : timestamp
updated_at : timestamp
index()
tambahindex()
editindex()
tambah()
edit()
hapus()
}

class SuratMasuk {
id : bigint
kode : varchar
nomor_surat : varchar
tanggal_masuk : date
tanggal_surat : date
pengirim : varchar
kepada : varchar
perihal : longtext
file : varchar
operator : varchar
created_at : timestamp
updated_at : timestamp
index()
tambahindex()
editindex()
tambah()
edit()
hapus()
hapus_berkas()
}

class SuratKeluar {
id : bigint
kode : varchar
nomor_surat : varchar
tanggal_keluar : date
tanggal_surat : date
kepada : varchar
perihal : longtext
file : varchar
operator : varchar
created_at : timestamp
updated_at : timestamp
index()
tambahindex()
editindex()
lihat()
tambah()
edit()
hapus()
hapus_berkas()
}

@enduml

@startuml
left to right direction

class User {
id : bigint
nip : varchar
nama : varchar
username : varchar
password : varchar
remember_token : varchar
created_at : timestamp
updated_at : timestamp
index()
tambahindex()
editindex()
tambah()
edit()
hapus()
}

class SuratMasuk {
id : bigint
kode : varchar
nomor_surat : varchar
tanggal_masuk : date
tanggal_surat : date
pengirim : varchar
kepada : varchar
perihal : longtext
file : varchar
operator : varchar
created_at : timestamp
updated_at : timestamp
index()
tambahindex()
editindex()
tambah()
edit()
hapus()
hapus_berkas()
}

class SuratKeluar {
id : bigint
kode : varchar
nomor_surat : varchar
tanggal_keluar : date
tanggal_surat : date
kepada : varchar
perihal : longtext
file : varchar
operator : varchar
created_at : timestamp
updated_at : timestamp
index()
tambahindex()
editindex()
lihat()
tambah()
edit()
hapus()
hapus_berkas()
}

@enduml

PlantUML version 1.2021.11(Sat Oct 02 20:26:11 ICT 2021)
(GPL source distribution)
Java Runtime: OpenJDK Runtime Environment
JVM: OpenJDK 64-Bit Server VM
Default Encoding: Cp1252
Language: en
Country: US
--></g></svg>
